<svg xmlns="http://www.w3.org/2000/svg" xmlns:xlink="http://www.w3.org/1999/xlink" width="166.667" height="48.139" viewBox="0 0 166.667 48.139">
  <defs>
    <linearGradient id="linear-gradient" x1="0.5" x2="0.5" y2="1" gradientUnits="objectBoundingBox">
      <stop offset="0" stop-color="#48c7ca"/>
      <stop offset="0.52" stop-color="#47c6cb"/>
      <stop offset="1" stop-color="#24b5dd"/>
    </linearGradient>
    <linearGradient id="linear-gradient-18" x1="0.5" x2="0.5" y2="1" gradientUnits="objectBoundingBox">
      <stop offset="0" stop-color="#48c7ca"/>
      <stop offset="1" stop-color="#24b5dd"/>
    </linearGradient>
  </defs>
  <g id="logo" transform="translate(-0.003 0.002)">
    <g id="Group_667" data-name="Group 667" transform="translate(0.003 10.74)">
      <path id="Path_251" data-name="Path 251" d="M12.727,380.454a2.505,2.505,0,0,0-.615-.24.872.872,0,0,1-.528-1.358,10.4,10.4,0,0,1,1.167-1.768c.385-.491.8-.963,1.213-1.427a2.613,2.613,0,0,1,1.086-.748,1.246,1.246,0,0,1,1.083.067.917.917,0,0,1,.4,1.282.508.508,0,0,1-.787.256,1.452,1.452,0,0,0-2,.448.57.57,0,0,0-.054.66.747.747,0,0,0,.277.3,2.687,2.687,0,0,0,2.58.25,8.808,8.808,0,0,0,1.56-1.028,1.8,1.8,0,0,1,.273-.188.172.172,0,0,1,.25.2,1.524,1.524,0,0,1-.164.38,4.81,4.81,0,0,1-1.613,1.708c-1.2.769-2.42,1.519-3.6,2.328A8.268,8.268,0,0,0,11.3,383.44a5.322,5.322,0,0,0-.368.556c-.21.369-.175.514.178.765.271.193.552.372.828.558a1.666,1.666,0,0,1,.765,1.313,8.2,8.2,0,0,1-.267,2.885,14.375,14.375,0,0,1-2.58,5.312,7.908,7.908,0,0,1-3.23,2.549,5.621,5.621,0,0,1-3.228.285A3.75,3.75,0,0,1,1.03,396.1a5.8,5.8,0,0,1-1.006-3,9.657,9.657,0,0,1,.365-3.167,27.326,27.326,0,0,1,1.943-5.167c.394-.81.8-1.614,1.2-2.42a1.545,1.545,0,0,1,.3-.447.163.163,0,0,1,.152-.048.145.145,0,0,1,.108.158,1.964,1.964,0,0,1-.035.287,4.727,4.727,0,0,1-.32.943c-.652,1.544-1.375,3.06-1.935,4.642a6.611,6.611,0,0,0-.462,2.933,4.529,4.529,0,0,0,.216,1.016,2.855,2.855,0,0,0,2.375,1.97,7.005,7.005,0,0,0,6.52-2,3.315,3.315,0,0,0,.928-1.6c.185-.847.112-.844-.5-1.208-.2-.12-.422-.208-.629-.322a7.23,7.23,0,0,1-.647-.375,1.416,1.416,0,0,1-.638-1.549,8.34,8.34,0,0,1,.875-2.369,16.72,16.72,0,0,1,2.529-3.5A2.082,2.082,0,0,0,12.727,380.454Z" transform="translate(-0.003 -369.947)" fill="url(#linear-gradient)"/>
      <path id="Path_252" data-name="Path 252" d="M979.854,468.286a1.081,1.081,0,0,1-.083.914,14.635,14.635,0,0,0-1.34,3.745,4.92,4.92,0,0,0,.023,2.387,3.027,3.027,0,0,0,1.356,1.774,4.557,4.557,0,0,0,2.167.66,7.924,7.924,0,0,0,8.423-6.542,12.63,12.63,0,0,0,.089-4.386,5.545,5.545,0,0,1-.083-.911.846.846,0,0,1,1.073-.922,4.523,4.523,0,0,0,1.368.042,2.549,2.549,0,0,0,1.991-1.4,7.1,7.1,0,0,0,.377-.967,1.47,1.47,0,0,1,.3-.586c.179-.192.349-.162.448.076a1.444,1.444,0,0,1,.086.489,2.234,2.234,0,0,0,.325,1.02.917.917,0,0,0,.247.278c.227.167.309.167.484-.057s.333-.477.506-.712c.237-.321.4-.32.634,0a1.767,1.767,0,0,1,.292.9,3.6,3.6,0,0,1-.479,2.24,1.516,1.516,0,0,1-2.542.382,2.789,2.789,0,0,1-.65-.948.083.083,0,0,0-.107.036,4.156,4.156,0,0,1-2.372,1.655c-.612.182-.583.193-.667.817a20.32,20.32,0,0,1-3.171,9.1,10.51,10.51,0,0,1-2.818,2.857,7.453,7.453,0,0,1-4.022,1.285,4.777,4.777,0,0,1-1.951-.36,4.242,4.242,0,0,1-2.619-3.305,9.054,9.054,0,0,1,.125-3.675,18.444,18.444,0,0,1,2.229-5.528C979.572,468.509,979.64,468.348,979.854,468.286Z" transform="translate(-936.295 -453.462)" fill="url(#linear-gradient)"/>
      <path id="Path_253" data-name="Path 253" d="M485.81,402.747a8.107,8.107,0,0,0-2.3-.7,1.341,1.341,0,0,0-1.229.564,1.9,1.9,0,0,1-.36.4.273.273,0,0,1-.312.03c-.117-.075-.087-.2-.042-.3a5.887,5.887,0,0,1,1.326-1.995,1.507,1.507,0,0,1,1.35-.375,13.571,13.571,0,0,1,1.441.4,7.626,7.626,0,0,0,.844.218,1.98,1.98,0,0,0,1.619-.333c.129-.1.277-.231.45-.125.19.115.152.328.1.492a3.118,3.118,0,0,1-1.2,1.967,3.515,3.515,0,0,0-.78.684l-2.594,2.875a2.64,2.64,0,0,1-.844.664,1.324,1.324,0,0,1-.923.09,3.746,3.746,0,0,0-3.894,1.023c-.125.131-.266.244-.392.372s-.273.262-.208.466.258.237.431.282a2.214,2.214,0,0,0,.7.035c.686-.045.778.243.622.806a7.691,7.691,0,0,1-1.024,2.393,3.017,3.017,0,0,1-1.75,1.325,1.616,1.616,0,0,1-1.922-.785,4.086,4.086,0,0,1-.552-2.065,30.69,30.69,0,0,1,.193-3.7c.172-1.752.42-3.495.713-5.231a10.07,10.07,0,0,1,.568-2.164c.257-.628.488-1.267.735-1.9.042-.107.062-.279.225-.24.139.034.083.187.077.288-.033.484-.061.97-.118,1.451-.23,1.941-.488,3.879-.7,5.822a13.689,13.689,0,0,0-.12,3.152,2.93,2.93,0,0,0,.25,1.044c.141.268.233.272.4.022.327-.481.576-1.01.929-1.478A11.055,11.055,0,0,1,479.7,406a4.8,4.8,0,0,1,2.67-.927,1.368,1.368,0,0,1,.41.048.854.854,0,0,0,.785-.155A31.027,31.027,0,0,0,485.81,402.747Z" transform="translate(-454.599 -392.076)" fill="url(#linear-gradient)"/>
      <path id="Path_254" data-name="Path 254" d="M1744.421,515.741a20.891,20.891,0,0,1-.735,5.883,15.555,15.555,0,0,1-3.1,5.925,8.518,8.518,0,0,1-4.025,2.767,6.253,6.253,0,0,1-3.042.226,4.2,4.2,0,0,1-3.5-3.361,7.922,7.922,0,0,1-.056-3.142,17.748,17.748,0,0,1,2.365-6.264c.079-.136.16-.378.326-.319.191.067.109.315.1.488a1.311,1.311,0,0,1-.185.461,14.9,14.9,0,0,0-1.259,3.469,5.128,5.128,0,0,0-.053,2.47,3.033,3.033,0,0,0,1.278,1.785,4.245,4.245,0,0,0,1.977.716,7.588,7.588,0,0,0,6.738-2.521,6.387,6.387,0,0,0,1.559-3.216,9.4,9.4,0,0,0,.083-1.578,16.991,16.991,0,0,1,.038-2.493,12.822,12.822,0,0,1,1.106-3.473c.075-.162.152-.427.386-.354.177.056.083.3.073.453C1744.449,514.355,1744.432,515.048,1744.421,515.741Z" transform="translate(-1657.763 -502.555)" fill="url(#linear-gradient)"/>
      <path id="Path_255" data-name="Path 255" d="M2472.645,409.206a67.845,67.845,0,0,1,1.026-7.982,2.144,2.144,0,0,1,.089-.362q.516-1.382,1.041-2.76c.042-.106.056-.292.22-.25s.089.208.083.324c-.047,1-.187,1.987-.3,2.978-.231,1.968-.542,3.928-.637,5.91a9.1,9.1,0,0,0,.086,1.947,1.978,1.978,0,0,0,2.2,1.7,2.463,2.463,0,0,0,1.722-.719c.224-.225.482-.417.728-.62a.886.886,0,0,1,.777-.2c.083.016.165.027.248.037a.565.565,0,0,0,.621-.32c.136-.272.25-.555.378-.833.175-.378.223-.455.661-.315a.625.625,0,0,0,.906-.39c.1-.21.175-.437.262-.655.052-.128.1-.256.161-.383.03-.066.084-.125.157-.105s.1.094.1.167.007.139.006.208a4.306,4.306,0,0,1-1.179,2.856,1.3,1.3,0,0,1-.775.456.446.446,0,0,0-.321.228,4.642,4.642,0,0,1-.562.721,1.006,1.006,0,0,1-.97.329,1.357,1.357,0,0,0-1.377.49c-.284.324-.559.653-.821.995a4.355,4.355,0,0,1-.806.837,2.2,2.2,0,0,1-1.423.494,1.893,1.893,0,0,1-1.7-1.009,3.933,3.933,0,0,1-.463-1.328A9.435,9.435,0,0,1,2472.645,409.206Z" transform="translate(-2369.588 -392.011)" fill="url(#linear-gradient)"/>
      <path id="Path_256" data-name="Path 256" d="M2120.3,410.069c.029-1.193.135-2.38.266-3.565.2-1.8.47-3.6.8-5.383a4.287,4.287,0,0,1,.212-.715c.292-.778.59-1.553.887-2.329a2.2,2.2,0,0,1,.095-.23c.031-.061.073-.125.154-.114s.1.09.1.158c0,.1,0,.194-.01.292-.077,1.176-.234,2.343-.38,3.512-.24,1.911-.489,3.821-.606,5.745a4.516,4.516,0,0,0,.134,1.525,2.079,2.079,0,0,0,.551.917,1.25,1.25,0,0,0,.571.325.276.276,0,0,0,.385-.2c.077-.25.158-.5.246-.75a7.091,7.091,0,0,1,.286-.734.338.338,0,0,1,.552-.132.655.655,0,0,1,.221.245,2.433,2.433,0,0,1,.333,1.432,7.227,7.227,0,0,1-.478,1.971,3.758,3.758,0,0,1-.8,1.254,1.819,1.819,0,0,1-2.83-.162,2.808,2.808,0,0,1-.6-1.524A11.488,11.488,0,0,1,2120.3,410.069Z" transform="translate(-2031.953 -391.901)" fill="url(#linear-gradient)"/>
      <path id="Path_257" data-name="Path 257" d="M1519.751,410.031c.027-1.236.177-2.463.308-3.69.167-1.572.39-3.137.622-4.7a7.337,7.337,0,0,1,.417-1.69c.272-.682.526-1.371.789-2.057.029-.078.061-.155.1-.229s.069-.132.151-.119c.1.016.12.108.115.19-.029.387-.056.775-.1,1.161-.276,2.522-.637,5.035-.858,7.564a6.813,6.813,0,0,0,.063,1.99,2.4,2.4,0,0,0,.344.886,1.2,1.2,0,0,0,2.115-.063,6.587,6.587,0,0,0,.3-.64c.05-.114.083-.235.139-.347s.1-.3.281-.243c.141.042.125.2.113.322a10.149,10.149,0,0,1-1.258,4.144,2.588,2.588,0,0,1-.912.952,1.469,1.469,0,0,1-2.006-.37,3.364,3.364,0,0,1-.61-1.486A7.463,7.463,0,0,1,1519.751,410.031Z" transform="translate(-1456.428 -391.722)" fill="url(#linear-gradient)"/>
      <path id="Path_258" data-name="Path 258" d="M491.476,259.8c.338-.554.64-1.067.958-1.569s.47-.533.958-.19a1.938,1.938,0,0,1,.227.181c1.074,1.02,1.1,1.615.383,2.765a4.342,4.342,0,0,1-.713.915c-.284.269-.406.278-.715.023-.235-.194-.448-.414-.672-.62-.125-.112-.253-.217-.375-.33s-.22-.113-.311.061c-.167.319-.35.63-.538.936a2.28,2.28,0,0,1-.476.574c-.271.226-.423.237-.7.017-.39-.311-.764-.642-1.152-.956a.407.407,0,0,1-.125-.548,17.5,17.5,0,0,1,1.271-2.379c.22-.338.375-.362.723-.136a5.175,5.175,0,0,1,.961.917C491.275,259.561,491.362,259.667,491.476,259.8Z" transform="translate(-467.832 -257.811)" fill="url(#linear-gradient)"/>
      <path id="Path_259" data-name="Path 259" d="M1611.331,296.705c.242-.4.467-.783.7-1.158.138-.224.288-.441.433-.661a.324.324,0,0,1,.436-.125,1.859,1.859,0,0,1,.331.171,1.894,1.894,0,0,1,.615,2.98,5.257,5.257,0,0,1-.631.823c-.342.352-.47.36-.841.049-.159-.134-.3-.285-.458-.426s-.329-.3-.5-.445c-.062-.054-.132-.1-.206-.154a1.467,1.467,0,0,0-.285.458,5.1,5.1,0,0,1-.8,1.161c-.311.305-.493.314-.828.042-.355-.288-.708-.58-1.054-.881-.283-.247-.292-.28-.15-.6a16.6,16.6,0,0,1,1.227-2.313c.236-.37.428-.4.787-.154a5.373,5.373,0,0,1,.926.9Z" transform="translate(-1541.005 -293.186)" fill="url(#linear-gradient)"/>
      <path id="Path_260" data-name="Path 260" d="M1240.45,949.8c.333-.548.638-1.061.958-1.562s.484-.528.963-.177a3.3,3.3,0,0,1,.89.977,1.282,1.282,0,0,1,.132,1.08,4.469,4.469,0,0,1-1.18,1.833c-.247.243-.366.234-.65.007-.183-.147-.346-.318-.521-.477a4.454,4.454,0,0,0-.738-.613c-.209.359-.406.708-.613,1.05a2.425,2.425,0,0,1-.554.669.427.427,0,0,1-.635.013c-.413-.327-.81-.673-1.215-1.009a.357.357,0,0,1-.111-.474,17.048,17.048,0,0,1,1.31-2.451c.193-.292.353-.313.667-.132a2.381,2.381,0,0,1,.509.425C1239.918,949.222,1240.168,949.5,1240.45,949.8Z" transform="translate(-1185.582 -919.073)" fill="url(#linear-gradient)"/>
      <path id="Path_261" data-name="Path 261" d="M860.794,457.046c-.007-.873-.042-1.746.027-2.618a10.668,10.668,0,0,1,.908-3.309c.167-.395.362-.778.55-1.164a2.075,2.075,0,0,1,.174-.28.158.158,0,0,1,.185-.057c.083.025.089.1.092.167a1.25,1.25,0,0,1-.015.167c-.2,2.057-.23,4.122-.268,6.186a14.86,14.86,0,0,1-.329,3.052,8.953,8.953,0,0,1-1.219,3.025,2.43,2.43,0,0,1-.231.292c-.075.08-.167.167-.288.112s-.089-.188-.07-.292c.039-.217.089-.434.136-.65a15.581,15.581,0,0,0,.349-3.59C860.789,457.739,860.794,457.392,860.794,457.046Z" transform="translate(-824.442 -441.615)" fill="url(#linear-gradient)"/>
      <path id="Path_262" data-name="Path 262" d="M2235.819,569.318c-.308,0-.4-.151-.25-.4a1.985,1.985,0,0,1,.637-.59c.635-.423,1.263-.858,1.912-1.258a7.3,7.3,0,0,0,2.816-3.25c.472-1.019.911-2.051,1.347-3.083a2.949,2.949,0,0,1,.315-.631c.076-.1.169-.211.305-.175a.278.278,0,0,1,.188.333,8.359,8.359,0,0,1-.159.942,29.517,29.517,0,0,1-1.811,5.214c-.058.125-.125.25-.185.375a3.456,3.456,0,0,1-2.22,1.87,19.515,19.515,0,0,1-2.667.636C2235.966,569.308,2235.882,569.312,2235.819,569.318Z" transform="translate(-2142.353 -547.338)" fill="url(#linear-gradient)"/>
      <path id="Path_263" data-name="Path 263" d="M1112.445,605.49a12.094,12.094,0,0,1,1.45,1.256,1.549,1.549,0,0,1,.33,1.438,4.135,4.135,0,0,1-1.194,2.051c-.336.3-.423.309-.782.024q-.618-.49-1.215-1.007c-.382-.333-.375-.355-.177-.8a19.515,19.515,0,0,1,1.426-2.715C1112.327,605.666,1112.372,605.6,1112.445,605.49Z" transform="translate(-1064.443 -591.003)" fill="url(#linear-gradient)"/>
      <path id="Path_264" data-name="Path 264" d="M1869.152,605.41c.4.345.853.647,1.241,1.025a1.689,1.689,0,0,1,.448,1.868,4.134,4.134,0,0,1-1.1,1.79c-.36.331-.468.34-.854.03-.411-.33-.818-.667-1.212-1.016-.347-.307-.337-.333-.155-.741a19.614,19.614,0,0,1,1.385-2.651C1868.973,605.611,1869.008,605.483,1869.152,605.41Z" transform="translate(-1789.59 -590.927)" fill="url(#linear-gradient)"/>
      <path id="Path_265" data-name="Path 265" d="M2385.743,320.119c-.014.056-.037.179-.076.3a6.342,6.342,0,0,1-1.042,1.881c-.258.327-.314.329-.651.11-.44-.288-.88-.579-1.313-.878-.347-.24-.384-.333-.247-.734a10.834,10.834,0,0,1,1.179-2.375.463.463,0,0,1,.742-.167,3.794,3.794,0,0,1,1.351,1.438A.7.7,0,0,1,2385.743,320.119Z" transform="translate(-2283.076 -315.62)" fill="url(#linear-gradient)"/>
      <path id="Path_266" data-name="Path 266" d="M689.168,862.52a2.911,2.911,0,0,1-.135.581,6.769,6.769,0,0,1-.948,1.7c-.306.4-.359.406-.769.137s-.833-.548-1.244-.833c-.333-.23-.385-.358-.255-.737a10.96,10.96,0,0,1,1.18-2.375.463.463,0,0,1,.74-.172,3.792,3.792,0,0,1,1.351,1.437A1.129,1.129,0,0,1,689.168,862.52Z" transform="translate(-657.178 -835.581)" fill="url(#linear-gradient)"/>
    </g>
    <g id="Group_666" data-name="Group 666" transform="translate(122.753 -0.002)">
      <path id="Path_267" data-name="Path 267" d="M2989.9,23.989h0v-5.87a10.091,10.091,0,0,0-.115-1.826,5.226,5.226,0,0,0-2.1-3.336c-2.422-1.812-4.812-3.667-7.27-5.432-2.875-2.064-5.667-4.239-8.542-6.3a5.138,5.138,0,0,0-.964-.573,6.59,6.59,0,0,0-7.052.837c-1.76,1.353-3.525,2.7-5.312,4.017-3.454,2.542-6.869,5.134-10.285,7.727a5.32,5.32,0,0,0-2.146,3.443,9.555,9.555,0,0,0-.125,1.575q.005,5.516,0,11.032c0,.485-.01.972.01,1.458a5.3,5.3,0,0,0,1.866,3.985c.337.289.683.566,1.042.83,1.845,1.354,3.708,2.687,5.529,4.073,3.214,2.445,6.466,4.84,9.729,7.218a6.476,6.476,0,0,0,7.813-.038c1.472-1.063,2.907-2.184,4.329-3.316,2.943-2.342,5.942-4.612,8.936-6.887.9-.68,1.816-1.327,2.667-2.065a5.406,5.406,0,0,0,1.994-4.263C2989.89,28.179,2989.9,26.084,2989.9,23.989Zm-5.042,7.033c-1.319,1.129-2.732,2.137-4.128,3.167-3.575,2.635-7.034,5.421-10.587,8.083a7.662,7.662,0,0,1-.819.571,2.524,2.524,0,0,1-2.579.036,6.991,6.991,0,0,1-.9-.6q-6.646-5.018-13.359-9.94c-.592-.436-1.191-.862-1.742-1.352a8.625,8.625,0,0,1-2.925-4.913,8.948,8.948,0,0,1,3.139-9.032c1.079-.913,2.236-1.735,3.369-2.583q5.714-4.28,11.437-8.547c.232-.174.471-.344.72-.5a2.774,2.774,0,0,1,3.307.131q1.958,1.413,3.891,2.86c3.367,2.518,6.679,5.108,10.1,7.546a11.265,11.265,0,0,1,2.672,2.542,9.359,9.359,0,0,1,1.787,5.65,9.132,9.132,0,0,1-3.389,6.878Z" transform="translate(-2945.985 0.002)" fill="url(#linear-gradient)"/>
      <path id="Path_268" data-name="Path 268" d="M3158.666,258.687a.708.708,0,0,0,.351-.292,10.455,10.455,0,0,0,2.485-5.67,10.322,10.322,0,0,0-2.7-8.443,9.81,9.81,0,0,0-6.286-3.181,10.458,10.458,0,0,0-11.548,8.009,10.165,10.165,0,0,0,2.33,9.351c.09.105.187.2.276.3.152-.057.1-.172.1-.255.01-.722.011-1.443.018-2.167,0-.277.009-.555.024-.833a1.789,1.789,0,0,1,1.547-1.838,2.636,2.636,0,0,1,1.968.285,1.261,1.261,0,0,1,.686,1.113c.009.235.018.472.018.708q-.023,4.476-.049,8.951c0,.083-.006.167,0,.25.015.206-.089.228-.258.185a12.835,12.835,0,0,1-2.2-.75A14.153,14.153,0,0,1,3139,244.53a14.027,14.027,0,0,1,24.989,1.26,13.314,13.314,0,0,1,1.092,7.233,14.008,14.008,0,0,1-6.661,10.526,11.887,11.887,0,0,1-3.821,1.6,1.527,1.527,0,0,1-.162.019.864.864,0,0,1-.045-.458q.03-4.434.067-8.868c0-.18.014-.361.03-.542a1.788,1.788,0,0,1,1.683-1.758,3.219,3.219,0,0,1,1.24.065,1.644,1.644,0,0,1,1.261,1.563c-.02.971-.006,1.942-.006,2.914Z" transform="translate(-3129.159 -227.549)" fill="url(#linear-gradient-18)"/>
      <path id="Path_269" data-name="Path 269" d="M3422.664,573.856v5.911c0,.111-.008.222,0,.333.011.16-.067.22-.217.235-.386.04-.771.106-1.158.125a16.659,16.659,0,0,1-2.869-.08c-.4-.047-.4-.045-.4-.453q.026-5.973.053-11.946a1.738,1.738,0,0,1,.542-1.264,2.7,2.7,0,0,1,3.814.167,1,1,0,0,1,.256.645q.022.333.023.667,0,2.83,0,5.661Z" transform="translate(-3398.356 -542.424)" fill="url(#linear-gradient-18)"/>
      <path id="Path_270" data-name="Path 270" d="M3413.652,423.15a2.655,2.655,0,0,1,2.682,2.617,2.678,2.678,0,1,1-5.355.045A2.64,2.64,0,0,1,3413.652,423.15Z" transform="translate(-3391.604 -405.518)" fill="url(#linear-gradient-18)"/>
      <path id="Path_271" data-name="Path 271" d="M3294.676,498.809a2.285,2.285,0,0,1,2.314,2.285,2.367,2.367,0,0,1-2.311,2.406,2.416,2.416,0,0,1-2.336-2.438A2.372,2.372,0,0,1,3294.676,498.809Z" transform="translate(-3277.912 -478.025)" fill="url(#linear-gradient-18)"/>
      <path id="Path_272" data-name="Path 272" d="M3552.153,498.4a2.306,2.306,0,0,1-2.139,2.372,2.334,2.334,0,1,1-.2-4.663A2.257,2.257,0,0,1,3552.153,498.4Z" transform="translate(-3522.475 -475.436)" fill="url(#linear-gradient-18)"/>
    </g>
  </g>
</svg>
